<?xml version="1.0" encoding="UTF-8" standalone="no"?>
<!-- Generator: Adobe Illustrator 25.4.1, SVG Export Plug-In . SVG Version: 6.00 Build 0)  -->

<svg
   version="1.0"
   id="katman_1"
   x="0px"
   y="0px"
   viewBox="0 0 200 199.99046"
   xml:space="preserve"
   sodipodi:docname="dscvr.svg"
   width="20"
   height="19.999046"
   inkscape:version="1.3.2 (091e20e, 2023-11-25, custom)"
   xmlns:inkscape="http://www.inkscape.org/namespaces/inkscape"
   xmlns:sodipodi="http://sodipodi.sourceforge.net/DTD/sodipodi-0.dtd"
   xmlns:xlink="http://www.w3.org/1999/xlink"
   xmlns="http://www.w3.org/2000/svg"
   xmlns:svg="http://www.w3.org/2000/svg"><defs
   id="defs18" /><sodipodi:namedview
   id="namedview18"
   pagecolor="#ffffff"
   bordercolor="#000000"
   borderopacity="0.25"
   inkscape:showpageshadow="2"
   inkscape:pageopacity="0.0"
   inkscape:pagecheckerboard="0"
   inkscape:deskcolor="#d1d1d1"
   inkscape:zoom="15.171764"
   inkscape:cx="4.4160981"
   inkscape:cy="5.5695566"
   inkscape:window-width="1920"
   inkscape:window-height="1009"
   inkscape:window-x="-8"
   inkscape:window-y="-8"
   inkscape:window-maximized="1"
   inkscape:current-layer="katman_1" />
<style
   type="text/css"
   id="style1">
	.st0{clip-path:url(#SVGID_00000060007847652082710140000006795427762608792966_);}
	.st1{fill:url(#SVGID_00000078726619705516566400000004006009668568883892_);}
	.st2{opacity:0.1;enable-background:new    ;}
	.st3{clip-path:url(#SVGID_00000090290318917500506660000002052061269494477225_);}
	.st4{fill:url(#SVGID_00000009568195812020242300000012744760633989959095_);}
	.st5{clip-path:url(#SVGID_00000053520416364353932890000009936029084590913421_);}
	.st6{fill:url(#SVGID_00000107575271690689436820000014868075285764917181_);}
	.st7{opacity:0.1;stroke:#000000;stroke-width:2.071171e-02;stroke-miterlimit:10;enable-background:new    ;}
	.st8{clip-path:url(#SVGID_00000139285236283598627790000004627246110805404044_);}
	.st9{fill:url(#SVGID_00000116941316695414986120000001909013826672748438_);}
	
		.st10{opacity:0.1;fill-rule:evenodd;clip-rule:evenodd;stroke:#000000;stroke-width:2.071171e-02;stroke-miterlimit:10;enable-background:new    ;}
	.st11{clip-path:url(#SVGID_00000078736506695678094360000016217025963104872601_);}
	.st12{fill:url(#SVGID_00000119106271750280630620000002025101925913077637_);}
</style>
<g
   id="Layer_2"
   transform="matrix(0.2381509,0,0,0.2381509,-102.10956,-46.248905)"
   style="fill:#a1a2b3;fill-opacity:1">
	<g
   id="Layer_1-2"
   style="fill:#a1a2b3;fill-opacity:1">
		<g
   id="g5"
   style="fill:#a1a2b3;fill-opacity:1">
			<defs
   id="defs1">
				<path
   id="SVGID_1_"
   d="M 670.2,916.7 C 499.5,828.4 434,629.4 491.9,450.6 c 3.7,-11.4 -2,-23.7 -13.1,-28.3 l -3.3,-1.4 -5.4,11.4 c -6,12.6 -11.5,25.5 -16.2,38.7 -78.9,218.3 34.1,459.1 252.4,538 1.3,0.5 2.6,0.9 4,1.4 97.6,18.4 192.5,14.6 265.5,-22.9 75,-38.6 127.6,-112.6 176.7,-210.1 -15.9,29.6 -36.1,56.6 -59.9,80.4 -111.5,111.4 -284.3,130.4 -422.4,58.9 z" />
			</defs>
			<clipPath
   id="SVGID_00000145058751107801603890000003099420144833037987_">
				<use
   xlink:href="#SVGID_1_"
   style="overflow:visible"
   id="use1" />
			</clipPath>
			<g
   clip-path="url(#SVGID_00000145058751107801603890000003099420144833037987_)"
   id="g4"
   style="fill:#a1a2b3;fill-opacity:1">
				
					<linearGradient
   id="SVGID_00000053535181750812256720000010007445397408363157_"
   gradientUnits="userSpaceOnUse"
   x1="137.0768"
   y1="1133.693"
   x2="580.65948"
   y2="385.81381"
   gradientTransform="matrix(1,0,0,-1,454,1496)">
					<stop
   offset="0.14"
   style="stop-color:#FFCD02"
   id="stop1" />
					<stop
   offset="0.37"
   style="stop-color:#FF963B"
   id="stop2" />
					<stop
   offset="0.7"
   style="stop-color:#FF6373"
   id="stop3" />
					<stop
   offset="1"
   style="stop-color:#FF4295"
   id="stop4" />
				</linearGradient>
				
					<rect
   x="419"
   y="409.10001"
   style="fill:#a1a2b3;fill-opacity:1"
   width="780"
   height="641.40002"
   id="rect4" />
				<ellipse
   class="st2"
   cx="848.90002"
   cy="604.09998"
   rx="397.79999"
   ry="393.79999"
   id="ellipse4"
   style="fill:#a1a2b3;fill-opacity:1" />
			</g>
		</g>
		<g
   id="g8"
   style="fill:#a1a2b3;fill-opacity:1">
			<defs
   id="defs5">
				<path
   id="SVGID_00000068675346670729329550000011491456814861807038_"
   d="m 610.5,774.8 c 113.4,116.1 304,149 426,26.9 60.2,-145.3 32.1,-233.8 -54.9,-280.1 38.4,51.3 43.9,120.2 14.1,176.9 -63,120.6 -243.8,113.9 -331.6,24.1 C 621.3,678.8 594.5,621.7 588.2,560.7 561.5,408.3 621.7,289 767.4,203.1 653.9,228.7 569.7,308.3 528.2,425.9 c -39.3,122.5 -7.6,256.8 82.3,348.9 z" />
			</defs>
			<clipPath
   id="SVGID_00000068664196203460030910000014090149601466087040_">
				<use
   xlink:href="#SVGID_00000068675346670729329550000011491456814861807038_"
   style="overflow:visible"
   id="use5" />
			</clipPath>
			<g
   clip-path="url(#SVGID_00000068664196203460030910000014090149601466087040_)"
   id="g7"
   style="fill:#a1a2b3;fill-opacity:1">
				
					<linearGradient
   id="SVGID_00000139994816362256051150000007856331790765846158_"
   gradientUnits="userSpaceOnUse"
   x1="4.4724002"
   y1="1277.2576"
   x2="687.6275"
   y2="594.10248"
   gradientTransform="matrix(1,0,0,-1,454,1496)">
					<stop
   offset="0"
   style="stop-color:#1B59D2"
   id="stop5" />
					<stop
   offset="0.51"
   style="stop-color:#4E9BF2"
   id="stop6" />
					<stop
   offset="0.98"
   style="stop-color:#1B59D2"
   id="stop7" />
				</linearGradient>
				
					<rect
   x="497.5"
   y="179.8"
   style="fill:#a1a2b3;fill-opacity:1"
   width="605.20001"
   height="761.09998"
   id="rect7" />
				<path
   class="st2"
   d="m 1099.2,525.5 c 0,195.5 -119.7,305.6 -257,305.6 -171.3,0 -298.9,-138.1 -298.9,-316.9 0,-178.8 138.9,-324 310.2,-324 171.3,0 245.7,156.5 245.7,335.3 z"
   id="path7"
   style="fill:#a1a2b3;fill-opacity:1" />
			</g>
		</g>
		<g
   id="g11"
   style="fill:#a1a2b3;fill-opacity:1">
			<defs
   id="defs8">
				<path
   id="SVGID_00000124133339070055173020000016825726520457174204_"
   d="m 794.5,468.9 c 69.2,-22.5 141.5,-8.1 187,52.7 44,33.6 67.7,82 71.4,145.5 2.2,39.2 -3.3,84 -16.5,134.6 103.7,-103.7 103.7,-271.9 0,-375.7 0,0 0,0 0,0 C 934,323.6 816.3,331.5 695.2,394.2 l -7.5,3.9 6.3,193.4 c 9.5,-28.4 31.3,-30.5 47.5,-50.7 17,-21.1 28.7,-59.7 53,-71.9 z" />
			</defs>
			<clipPath
   id="SVGID_00000084493024695181474370000013775551965658988455_">
				<use
   xlink:href="#SVGID_00000124133339070055173020000016825726520457174204_"
   style="overflow:visible"
   id="use8" />
			</clipPath>
			<g
   clip-path="url(#SVGID_00000084493024695181474370000013775551965658988455_)"
   id="g10"
   style="fill:#a1a2b3;fill-opacity:1">
				
					<linearGradient
   id="SVGID_00000096775183951085280650000013887515065972222652_"
   gradientUnits="userSpaceOnUse"
   x1="168.8085"
   y1="1093.7627"
   x2="725.23059"
   y2="772.50232"
   gradientTransform="matrix(1,0,0,-1,454,1496)">
					<stop
   offset="0"
   style="stop-color:#50AFF3"
   id="stop8" />
					<stop
   offset="0.33"
   style="stop-color:#4064C5"
   id="stop9" />
					<stop
   offset="1"
   style="stop-color:#6C349F"
   id="stop10" />
				</linearGradient>
				
					<rect
   x="673"
   y="315.39999"
   style="fill:#a1a2b3;fill-opacity:1"
   width="456.10001"
   height="495"
   id="rect10" />
				<path
   class="st7"
   d="m 481.5,187.9 v 869.6 h 753.7 V 187.9 Z M 838,895.3 c -138.5,0 -225.8,-47.4 -225.8,-185.9 0,-140 103.7,-305.9 242.2,-305.9 114.1,0 234.2,102.7 234.2,241.1 0.1,138.5 -112.1,250.7 -250.6,250.7 0.1,0 0,0 0,0 z"
   id="path10"
   style="fill:#a1a2b3;fill-opacity:1" />
			</g>
		</g>
		<g
   id="g14"
   style="fill:#a1a2b3;fill-opacity:1">
			<defs
   id="defs11">
				<path
   id="SVGID_00000086691758994419556740000008251830637647227051_"
   d="m 848.6,269 c 190.5,-0.1 344.9,154.2 345.1,344.6 0,57.2 -14.2,113.5 -41.3,163.8 -97,192.4 -244.4,270.1 -442.3,233 219,76.4 458.4,-39.1 534.9,-258 76.4,-219 -39.1,-458.4 -258,-534.9 -40.1,-14 -82.2,-21.9 -124.7,-23.2 -4.6,-0.1 -9.2,-0.1 -13.7,-0.1 -27.3,0 -54.5,3 -81.1,8.9 C 610,289.5 550.2,408.7 588.2,560.7 576,445.1 638.4,334.5 743.7,285.3 l 15.4,-4.5 c 29.2,-7.9 59.3,-11.8 89.5,-11.8 z" />
			</defs>
			<clipPath
   id="SVGID_00000099661357791914082750000015154533892400370601_">
				<use
   xlink:href="#SVGID_00000086691758994419556740000008251830637647227051_"
   style="overflow:visible"
   id="use11" />
			</clipPath>
			<g
   clip-path="url(#SVGID_00000099661357791914082750000015154533892400370601_)"
   id="g13"
   style="fill:#a1a2b3;fill-opacity:1">
				
					<linearGradient
   id="SVGID_00000129176651838632943110000014686767742153261502_"
   gradientUnits="userSpaceOnUse"
   x1="287.52621"
   y1="1379.9747"
   x2="649.98682"
   y2="384.11929"
   gradientTransform="matrix(1,0,0,-1,454,1496)">
					<stop
   offset="0"
   style="stop-color:#A700BA"
   id="stop11" />
					<stop
   offset="0.49"
   style="stop-color:#C00C95"
   id="stop12" />
					<stop
   offset="0.86"
   style="stop-color:#DB1B62"
   id="stop13" />
				</linearGradient>
				
					<rect
   x="559.5"
   y="182.3"
   style="fill:#a1a2b3;fill-opacity:1"
   width="726.5"
   height="863.29999"
   id="rect13" />
				<path
   class="st10"
   d="m 393.6,18.1 v 1135.8 h 934.5 V 18.1 Z m 464.1,1003 C 651,1021.1 483.4,843 483.4,623.4 483.4,403.8 651,225.8 857.7,225.8 c 206.7,0 374.3,178.1 374.3,397.6 0,219.5 -167.6,397.7 -374.3,397.7 z"
   id="path13"
   style="fill:#a1a2b3;fill-opacity:1" />
			</g>
		</g>
		<g
   id="g18"
   style="fill:#a1a2b3;fill-opacity:1">
			<defs
   id="defs14">
				<path
   id="SVGID_00000017504619482096579160000002562451376853608382_"
   d="M 799.1,760.2 794.5,469 c -22.5,11.1 -42.5,26.8 -58.7,45.9 -17.7,20.9 -31.6,46.5 -41.7,76.6 l 3.8,117.1 3.9,3.7 c 31.7,30.7 65.7,41.1 97.3,47.9 z" />
			</defs>
			<clipPath
   id="SVGID_00000101080994678384537080000012159139783534266518_">
				<use
   xlink:href="#SVGID_00000017504619482096579160000002562451376853608382_"
   style="overflow:visible"
   id="use14" />
			</clipPath>
			<g
   clip-path="url(#SVGID_00000101080994678384537080000012159139783534266518_)"
   id="g17"
   style="fill:#a1a2b3;fill-opacity:1">
				
					<linearGradient
   id="SVGID_00000109712838896794062370000010711819726496527546_"
   gradientUnits="userSpaceOnUse"
   x1="292.63449"
   y1="1030.6536"
   x2="292.63449"
   y2="732.23932"
   gradientTransform="matrix(1,0,0,-1,454,1496)">
					<stop
   offset="0"
   style="stop-color:#1C58D2"
   id="stop14" />
					<stop
   offset="0.33"
   style="stop-color:#5734CA"
   id="stop15" />
					<stop
   offset="1"
   style="stop-color:#A203BC"
   id="stop16" />
				</linearGradient>
				
					<rect
   x="689.20001"
   y="465.29999"
   style="fill:#a1a2b3;fill-opacity:1"
   width="114.9"
   height="298.39999"
   id="rect16" />
				
					<rect
   x="747.79999"
   y="420"
   transform="matrix(0.9996,-0.02998651,0.02998651,0.9996,-17.5148,23.9321)"
   class="st2"
   width="82.800003"
   height="351.79999"
   id="rect17"
   style="fill:#a1a2b3;fill-opacity:1" />
			</g>
		</g>
	</g>
</g>
</svg>
