<?xml version="1.0" encoding="UTF-8" standalone="no"?>
<!-- Generator: Adobe Illustrator 25.4.1, SVG Export Plug-In . SVG Version: 6.00 Build 0)  -->

<svg
   version="1.0"
   id="katman_1"
   x="0px"
   y="0px"
   viewBox="0 0 200.72758 200"
   xml:space="preserve"
   sodipodi:docname="openchat.svg"
   width="20.072758"
   height="20"
   inkscape:version="1.3.2 (091e20e, 2023-11-25, custom)"
   xmlns:inkscape="http://www.inkscape.org/namespaces/inkscape"
   xmlns:sodipodi="http://sodipodi.sourceforge.net/DTD/sodipodi-0.dtd"
   xmlns="http://www.w3.org/2000/svg"
   xmlns:svg="http://www.w3.org/2000/svg"><defs
   id="defs6"><path
     id="SVGID_1_-3"
     d="M 670.2,916.7 C 499.5,828.4 434,629.4 491.9,450.6 c 3.7,-11.4 -2,-23.7 -13.1,-28.3 l -3.3,-1.4 -5.4,11.4 c -6,12.6 -11.5,25.5 -16.2,38.7 -78.9,218.3 34.1,459.1 252.4,538 1.3,0.5 2.6,0.9 4,1.4 97.6,18.4 192.5,14.6 265.5,-22.9 75,-38.6 127.6,-112.6 176.7,-210.1 -15.9,29.6 -36.1,56.6 -59.9,80.4 -111.5,111.4 -284.3,130.4 -422.4,58.9 z" /><path
     id="SVGID_00000068675346670729329550000011491456814861807038_"
     d="m 610.5,774.8 c 113.4,116.1 304,149 426,26.9 60.2,-145.3 32.1,-233.8 -54.9,-280.1 38.4,51.3 43.9,120.2 14.1,176.9 -63,120.6 -243.8,113.9 -331.6,24.1 C 621.3,678.8 594.5,621.7 588.2,560.7 561.5,408.3 621.7,289 767.4,203.1 653.9,228.7 569.7,308.3 528.2,425.9 c -39.3,122.5 -7.6,256.8 82.3,348.9 z" /><path
     id="SVGID_00000124133339070055173020000016825726520457174204_"
     d="m 794.5,468.9 c 69.2,-22.5 141.5,-8.1 187,52.7 44,33.6 67.7,82 71.4,145.5 2.2,39.2 -3.3,84 -16.5,134.6 103.7,-103.7 103.7,-271.9 0,-375.7 0,0 0,0 0,0 C 934,323.6 816.3,331.5 695.2,394.2 l -7.5,3.9 6.3,193.4 c 9.5,-28.4 31.3,-30.5 47.5,-50.7 17,-21.1 28.7,-59.7 53,-71.9 z" /><path
     id="SVGID_00000086691758994419556740000008251830637647227051_"
     d="m 848.6,269 c 190.5,-0.1 344.9,154.2 345.1,344.6 0,57.2 -14.2,113.5 -41.3,163.8 -97,192.4 -244.4,270.1 -442.3,233 219,76.4 458.4,-39.1 534.9,-258 76.4,-219 -39.1,-458.4 -258,-534.9 -40.1,-14 -82.2,-21.9 -124.7,-23.2 -4.6,-0.1 -9.2,-0.1 -13.7,-0.1 -27.3,0 -54.5,3 -81.1,8.9 C 610,289.5 550.2,408.7 588.2,560.7 576,445.1 638.4,334.5 743.7,285.3 l 15.4,-4.5 c 29.2,-7.9 59.3,-11.8 89.5,-11.8 z" /><path
     id="SVGID_00000017504619482096579160000002562451376853608382_"
     d="M 799.1,760.2 794.5,469 c -22.5,11.1 -42.5,26.8 -58.7,45.9 -17.7,20.9 -31.6,46.5 -41.7,76.6 l 3.8,117.1 3.9,3.7 c 31.7,30.7 65.7,41.1 97.3,47.9 z" /></defs><sodipodi:namedview
   id="namedview6"
   pagecolor="#ffffff"
   bordercolor="#000000"
   borderopacity="0.25"
   inkscape:showpageshadow="2"
   inkscape:pageopacity="0.0"
   inkscape:pagecheckerboard="0"
   inkscape:deskcolor="#d1d1d1"
   inkscape:zoom="11.313709"
   inkscape:cx="-0.66291261"
   inkscape:cy="6.4081552"
   inkscape:window-width="1920"
   inkscape:window-height="1009"
   inkscape:window-x="-8"
   inkscape:window-y="-8"
   inkscape:window-maximized="1"
   inkscape:current-layer="katman_1" />
<style
   type="text/css"
   id="style1">
	.st0{fill:url(#SVGID_1_);}
	.st1{fill:url(#SVGID_00000094599808329549387040000000498424730509333422_);}
	.st2{fill:url(#SVGID_00000004522480196102430590000001719517651675293586_);}
	.st3{fill:#191919;}
</style>
<linearGradient
   id="SVGID_1_"
   gradientUnits="userSpaceOnUse"
   x1="396"
   y1="1337.5"
   x2="396"
   y2="453.5"
   gradientTransform="matrix(1,0,0,-1,454,1496)">
	<stop
   offset="0"
   style="stop-color:#000000"
   id="stop1" />
	<stop
   offset="1"
   style="stop-color:#000000"
   id="stop2" />
</linearGradient>

<linearGradient
   id="SVGID_00000045597419924900206940000007503092774195541377_"
   gradientUnits="userSpaceOnUse"
   x1="43.664299"
   y1="1349.6703"
   x2="43.664299"
   y2="713.19019"
   gradientTransform="matrix(-1,0.001526,0.00192283,1.2591,359.7386,-1073.8048)">
	<stop
   offset="0"
   style="stop-color:#FBB03B"
   id="stop3" />
	<stop
   offset="1"
   style="stop-color:#F05A24"
   id="stop4" />
</linearGradient>

<linearGradient
   id="SVGID_00000101066217074944623740000009174478259898244243_"
   gradientUnits="userSpaceOnUse"
   x1="1205.9855"
   y1="1167.7296"
   x2="1205.9855"
   y2="659.58533"
   gradientTransform="matrix(1.005,-0.2332,-0.3203,-1.3806,-426.0404,1758.8807)">
	<stop
   offset="0"
   style="stop-color:#5F2583"
   id="stop5" />
	<stop
   offset="1"
   style="stop-color:#ED1E79"
   id="stop6" />
</linearGradient>
<g
   id="g8"
   transform="translate(0.36378929)"><path
     style="fill:#a1a2b3;fill-opacity:1;stroke-width:0.31308"
     d="m 0,99.621883 c 0,55.039367 44.613823,99.653187 99.621883,99.653187 55.008057,0 99.653187,-44.61382 99.653187,-99.62188 C 199.27507,44.64513 154.66125,0 99.621883,0 44.582515,0 0,44.582515 0,99.621883 Z m 44.269435,0 c 0,-30.556555 24.795893,-55.352448 55.352448,-55.352448 30.556567,0 55.352437,24.795893 55.352437,55.352448 0,30.556567 -24.79587,55.352437 -55.352437,55.352437 -30.587863,0 -55.352448,-24.79587 -55.352448,-55.352437 z"
     id="path4" /><path
     style="fill:#9091a5;fill-opacity:1;stroke-width:0.31308"
     d="m 157.2598,18.409072 c 45.33391,31.401869 56.35431,93.203758 24.60805,138.068038 -6.69989,9.48631 -15.02781,17.7203 -24.60805,24.35758 l -25.70382,-36.34851 c 25.04637,-17.34461 31.1201,-51.501582 13.58765,-76.266167 -3.69433,-5.228426 -8.2966,-9.799386 -13.58765,-13.462417 z"
     id="path6" /></g>

<style
   type="text/css"
   id="style1-5">
	.st0{clip-path:url(#SVGID_00000060007847652082710140000006795427762608792966_);}
	.st1{fill:url(#SVGID_00000078726619705516566400000004006009668568883892_);}
	.st2{opacity:0.1;enable-background:new    ;}
	.st3{clip-path:url(#SVGID_00000090290318917500506660000002052061269494477225_);}
	.st4{fill:url(#SVGID_00000009568195812020242300000012744760633989959095_);}
	.st5{clip-path:url(#SVGID_00000053520416364353932890000009936029084590913421_);}
	.st6{fill:url(#SVGID_00000107575271690689436820000014868075285764917181_);}
	.st7{opacity:0.1;stroke:#000000;stroke-width:2.071171e-02;stroke-miterlimit:10;enable-background:new    ;}
	.st8{clip-path:url(#SVGID_00000139285236283598627790000004627246110805404044_);}
	.st9{fill:url(#SVGID_00000116941316695414986120000001909013826672748438_);}
	
		.st10{opacity:0.1;fill-rule:evenodd;clip-rule:evenodd;stroke:#000000;stroke-width:2.071171e-02;stroke-miterlimit:10;enable-background:new    ;}
	.st11{clip-path:url(#SVGID_00000078736506695678094360000016217025963104872601_);}
	.st12{fill:url(#SVGID_00000119106271750280630620000002025101925913077637_);}
</style></svg>
