<?xml version="1.0" encoding="UTF-8" standalone="no"?>
<svg
   width="19.98328"
   height="20"
   version="1.1"
   id="svg1"
   sodipodi:docname="x.svg"
   xml:space="preserve"
   viewBox="0 0 333.05467 333.33333"
   inkscape:version="1.3.2 (091e20e, 2023-11-25, custom)"
   xmlns:inkscape="http://www.inkscape.org/namespaces/inkscape"
   xmlns:sodipodi="http://sodipodi.sourceforge.net/DTD/sodipodi-0.dtd"
   xmlns="http://www.w3.org/2000/svg"
   xmlns:svg="http://www.w3.org/2000/svg"><defs
     id="defs1"><path
       id="SVGID_1_"
       d="M 670.2,916.7 C 499.5,828.4 434,629.4 491.9,450.6 c 3.7,-11.4 -2,-23.7 -13.1,-28.3 l -3.3,-1.4 -5.4,11.4 c -6,12.6 -11.5,25.5 -16.2,38.7 -78.9,218.3 34.1,459.1 252.4,538 1.3,0.5 2.6,0.9 4,1.4 97.6,18.4 192.5,14.6 265.5,-22.9 75,-38.6 127.6,-112.6 176.7,-210.1 -15.9,29.6 -36.1,56.6 -59.9,80.4 -111.5,111.4 -284.3,130.4 -422.4,58.9 z" /><path
       id="SVGID_00000068675346670729329550000011491456814861807038_"
       d="m 610.5,774.8 c 113.4,116.1 304,149 426,26.9 60.2,-145.3 32.1,-233.8 -54.9,-280.1 38.4,51.3 43.9,120.2 14.1,176.9 -63,120.6 -243.8,113.9 -331.6,24.1 C 621.3,678.8 594.5,621.7 588.2,560.7 561.5,408.3 621.7,289 767.4,203.1 653.9,228.7 569.7,308.3 528.2,425.9 c -39.3,122.5 -7.6,256.8 82.3,348.9 z" /><path
       id="SVGID_00000124133339070055173020000016825726520457174204_"
       d="m 794.5,468.9 c 69.2,-22.5 141.5,-8.1 187,52.7 44,33.6 67.7,82 71.4,145.5 2.2,39.2 -3.3,84 -16.5,134.6 103.7,-103.7 103.7,-271.9 0,-375.7 0,0 0,0 0,0 C 934,323.6 816.3,331.5 695.2,394.2 l -7.5,3.9 6.3,193.4 c 9.5,-28.4 31.3,-30.5 47.5,-50.7 17,-21.1 28.7,-59.7 53,-71.9 z" /><path
       id="SVGID_00000086691758994419556740000008251830637647227051_"
       d="m 848.6,269 c 190.5,-0.1 344.9,154.2 345.1,344.6 0,57.2 -14.2,113.5 -41.3,163.8 -97,192.4 -244.4,270.1 -442.3,233 219,76.4 458.4,-39.1 534.9,-258 76.4,-219 -39.1,-458.4 -258,-534.9 -40.1,-14 -82.2,-21.9 -124.7,-23.2 -4.6,-0.1 -9.2,-0.1 -13.7,-0.1 -27.3,0 -54.5,3 -81.1,8.9 C 610,289.5 550.2,408.7 588.2,560.7 576,445.1 638.4,334.5 743.7,285.3 l 15.4,-4.5 c 29.2,-7.9 59.3,-11.8 89.5,-11.8 z" /><path
       id="SVGID_00000017504619482096579160000002562451376853608382_"
       d="M 799.1,760.2 794.5,469 c -22.5,11.1 -42.5,26.8 -58.7,45.9 -17.7,20.9 -31.6,46.5 -41.7,76.6 l 3.8,117.1 3.9,3.7 c 31.7,30.7 65.7,41.1 97.3,47.9 z" /></defs><sodipodi:namedview
     id="namedview1"
     pagecolor="#ffffff"
     bordercolor="#000000"
     borderopacity="0.25"
     inkscape:showpageshadow="2"
     inkscape:pageopacity="0.0"
     inkscape:pagecheckerboard="0"
     inkscape:deskcolor="#d1d1d1"
     inkscape:zoom="21.493333"
     inkscape:cx="3.1637717"
     inkscape:cy="9.5611042"
     inkscape:window-width="1920"
     inkscape:window-height="1009"
     inkscape:window-x="-8"
     inkscape:window-y="-8"
     inkscape:window-maximized="1"
     inkscape:current-layer="svg1" /><path
     d="M 198.24534,141.16015 322.25311,9.0887664e-7 H 292.87759 L 185.15625,122.54232 99.183457,9.0887664e-7 H -5.5590812e-4 L 130.03552,185.32334 -5.5590812e-4,333.33333 H 29.374964 L 143.058,203.89676 233.87122,333.33333 h 99.184 M 39.97724,21.693034 H 85.106299 L 292.85539,312.70608 h -45.14016"
     id="path1"
     style="fill:#a1a2b3;fill-opacity:1;stroke-width:1.11018" /><style
     type="text/css"
     id="style1">
	.st0{clip-path:url(#SVGID_00000060007847652082710140000006795427762608792966_);}
	.st1{fill:url(#SVGID_00000078726619705516566400000004006009668568883892_);}
	.st2{opacity:0.1;enable-background:new    ;}
	.st3{clip-path:url(#SVGID_00000090290318917500506660000002052061269494477225_);}
	.st4{fill:url(#SVGID_00000009568195812020242300000012744760633989959095_);}
	.st5{clip-path:url(#SVGID_00000053520416364353932890000009936029084590913421_);}
	.st6{fill:url(#SVGID_00000107575271690689436820000014868075285764917181_);}
	.st7{opacity:0.1;stroke:#000000;stroke-width:2.071171e-02;stroke-miterlimit:10;enable-background:new    ;}
	.st8{clip-path:url(#SVGID_00000139285236283598627790000004627246110805404044_);}
	.st9{fill:url(#SVGID_00000116941316695414986120000001909013826672748438_);}
	
		.st10{opacity:0.1;fill-rule:evenodd;clip-rule:evenodd;stroke:#000000;stroke-width:2.071171e-02;stroke-miterlimit:10;enable-background:new    ;}
	.st11{clip-path:url(#SVGID_00000078736506695678094360000016217025963104872601_);}
	.st12{fill:url(#SVGID_00000119106271750280630620000002025101925913077637_);}
</style></svg>
