<?xml version="1.0" encoding="UTF-8" standalone="no"?>
<!-- Created with Inkscape (http://www.inkscape.org/) -->

<svg
   width="489.54269mm"
   height="90.834961mm"
   viewBox="0 0 489.54269 90.834961"
   version="1.1"
   id="svg1"
   xml:space="preserve"
   inkscape:version="1.3.2 (091e20e, 2023-11-25, custom)"
   sodipodi:docname="Logo.svg"
   xmlns:inkscape="http://www.inkscape.org/namespaces/inkscape"
   xmlns:sodipodi="http://sodipodi.sourceforge.net/DTD/sodipodi-0.dtd"
   xmlns="http://www.w3.org/2000/svg"
   xmlns:svg="http://www.w3.org/2000/svg"><sodipodi:namedview
     id="namedview1"
     pagecolor="#ffffff"
     bordercolor="#000000"
     borderopacity="0.25"
     inkscape:showpageshadow="2"
     inkscape:pageopacity="0.0"
     inkscape:pagecheckerboard="0"
     inkscape:deskcolor="#d1d1d1"
     inkscape:document-units="mm"
     inkscape:zoom="0.1280329"
     inkscape:cx="-499.87151"
     inkscape:cy="89.820661"
     inkscape:window-width="1920"
     inkscape:window-height="1009"
     inkscape:window-x="-8"
     inkscape:window-y="-8"
     inkscape:window-maximized="1"
     inkscape:current-layer="layer1" /><defs
     id="defs1" /><g
     inkscape:label="Capa 1"
     inkscape:groupmode="layer"
     id="layer1"
     transform="translate(96.066121,-524.92262)"><path
       style="fill:#ffffff"
       d="m 170.21055,615.67045 c -5.23722,-0.45229 -9.93135,-1.73664 -14.52034,-3.97288 -4.10385,-1.99982 -7.4541,-4.38621 -10.86629,-7.74007 -12.17264,-11.96455 -15.44555,-30.12554 -8.23272,-45.68248 2.73047,-5.88921 6.95808,-11.11059 12.29605,-15.18648 0.61826,-0.47209 1.21123,-0.9878 1.31771,-1.14603 l 0.19359,-0.28768 v -6.61827 c 0,-4.42578 0.0307,-6.78469 0.0926,-7.12064 0.21322,-1.15723 0.93632,-2.11061 1.99927,-2.63595 0.56482,-0.27915 0.7245,-0.31856 1.41038,-0.34808 0.63125,-0.0272 0.87335,4.8e-4 1.31676,0.15035 1.28802,0.43532 2.20833,1.49783 2.45446,2.83368 0.0593,0.3216 0.0926,2.06787 0.0926,4.85273 0,2.95438 0.0293,4.4052 0.0915,4.52129 0.0503,0.094 0.219,0.22421 0.37487,0.28934 0.26953,0.11261 0.34851,0.0956 1.61513,-0.34825 1.38588,-0.48562 2.59264,-0.82984 4.29951,-1.22642 0.68813,-0.15989 1.06158,-0.29032 1.18533,-0.41399 0.17783,-0.17771 0.18137,-0.24157 0.22477,-4.05182 0.0489,-4.29306 0.0297,-4.1417 0.64321,-5.06604 0.34591,-0.52113 0.95397,-1.02097 1.5987,-1.31416 0.35949,-0.16348 0.57016,-0.19311 1.397,-0.19646 0.93276,-0.004 0.99757,0.008 1.5428,0.27443 0.64499,0.31546 1.27451,0.88964 1.61255,1.47081 0.45033,0.7742 0.48531,1.09758 0.48531,4.4861 0,1.77116 0.0348,3.20093 0.0809,3.32212 0.15787,0.41523 0.36014,0.4676 2.16769,0.5612 8.05277,0.417 15.67865,3.2136 22.13542,8.11761 3.81922,2.90075 7.46031,6.91564 9.94561,10.96663 0.78512,1.27974 0.92777,1.66728 0.87154,2.36778 -0.0479,0.59696 -0.27843,1.10736 -0.68271,1.51163 -0.15313,0.15313 -1.28292,0.90662 -2.51065,1.67442 -1.22772,0.7678 -2.27099,1.42148 -2.31836,1.45261 -0.0534,0.0351 0.0626,0.40537 0.30497,0.97367 1.39562,3.27236 2.14288,6.061 2.57124,9.59539 0.18396,1.51782 0.21148,5.56692 0.0475,6.985 -0.39937,3.45321 -1.1896,6.49511 -2.48308,9.55824 -0.27318,0.64694 -0.49669,1.20469 -0.49669,1.23944 0,0.0348 0.43824,0.33841 0.97388,0.67479 1.1277,0.70819 1.70041,1.28258 1.94712,1.95282 0.16601,0.45103 0.16933,0.66983 0.16933,11.17037 v 10.71034 l -0.22945,0.435 c -0.1262,0.23925 -0.38781,0.57056 -0.58137,0.73624 -0.71214,0.60956 0.67067,0.5657 -17.42876,0.55278 -8.96743,-0.006 -16.66637,-0.0429 -17.10875,-0.0811 z m 27.49677,-7.51276 c 0.59486,-0.42428 0.56729,-0.14198 0.59691,-6.11049 0.0182,-3.67018 -0.003,-5.5122 -0.0659,-5.80446 -0.13246,-0.61246 -0.453,-0.94596 -1.58739,-1.65159 -0.54893,-0.34145 -3.4174,-2.144 -6.37438,-4.00566 -2.95699,-1.86165 -5.55772,-3.45431 -5.77941,-3.53922 -0.47549,-0.18214 -1.15775,-0.19907 -1.67897,-0.0417 -0.20531,0.062 -0.80158,0.40438 -1.32503,0.76085 -1.54175,1.04991 -3.01899,1.73427 -4.70189,2.17823 -3.48851,0.9203 -7.11822,0.56353 -10.34837,-1.01715 -4.25203,-2.08075 -7.2324,-5.97011 -8.18759,-10.68472 -0.16858,-0.83209 -0.19441,-1.21272 -0.19441,-2.8646 0,-1.67537 0.0242,-2.02237 0.20105,-2.87866 0.47176,-2.28471 1.32642,-4.20894 2.70758,-6.096 0.65474,-0.89455 2.44753,-2.64651 3.39954,-3.32211 2.76007,-1.95868 6.3114,-2.95028 9.66171,-2.69772 2.84605,0.21455 5.0568,1.00686 7.63587,2.73664 0.41016,0.27509 0.90546,0.55689 1.10067,0.62622 0.55223,0.19615 1.33717,0.16429 1.85974,-0.0755 0.35298,-0.16195 7.36331,-4.53088 12.16884,-7.58377 0.73748,-0.46852 0.92239,-0.62959 1.08495,-0.94511 0.27462,-0.53305 0.20654,-0.98912 -0.23258,-1.55818 -0.39577,-0.51289 -2.66513,-2.75638 -3.55772,-3.51716 -2.29787,-1.95855 -5.41155,-3.87319 -8.30771,-5.10851 -3.8455,-1.64026 -7.52491,-2.44784 -11.71994,-2.57238 -5.12231,-0.15207 -10.04025,0.81763 -14.55377,2.86963 -0.51713,0.23511 -1.0681,0.52259 -1.22438,0.63886 -0.53101,0.39504 -0.52018,0.27491 -0.52018,5.77018 0,5.33643 -0.0136,5.53981 -0.42503,6.35689 -1.36633,2.7135 -5.23781,2.68839 -6.52714,-0.0423 -0.33539,-0.71032 -0.41023,-1.39032 -0.41216,-3.74455 l -0.002,-2.05121 -0.20599,-0.13497 c -0.15147,-0.0992 -0.2483,-0.11233 -0.36583,-0.0494 -0.19514,0.10444 -1.75057,1.8257 -2.54849,2.8202 -3.40354,4.24206 -5.78998,9.60476 -6.69497,15.04466 -0.36269,2.18018 -0.38713,2.5375 -0.38298,5.59897 0.004,2.80456 0.0189,3.10197 0.22515,4.445 0.78967,5.14121 2.47288,9.51034 5.26781,13.67367 2.49832,3.7215 5.6646,6.86027 9.47854,9.39617 4.54274,3.02048 10.33514,4.99808 15.71609,5.36567 0.20955,0.0143 6.26745,0.023 13.462,0.0193 l 13.081,-0.007 z m -1.07935,-23.71659 c 1.1168,-2.95921 1.62798,-5.79475 1.62636,-9.02156 -0.002,-3.41209 -0.5244,-6.23504 -1.72944,-9.34024 -0.25771,-0.66409 -0.36937,-0.86191 -0.46565,-0.82497 -0.39322,0.1509 -7.90883,4.94725 -8.16896,5.21332 -0.42851,0.43829 -0.46935,0.7436 -0.24605,1.83939 0.4176,2.0493 0.41564,4.05886 -0.006,6.1961 -0.19793,1.00318 -0.16278,1.38634 0.16279,1.77447 0.14303,0.1705 8.32967,5.36038 8.37853,5.31152 0.0134,-0.0134 0.21524,-0.53004 0.44846,-1.14803 z m -22.39014,-1.44821 c 1.79616,-0.31814 3.51761,-1.31082 4.65596,-2.68488 0.64379,-0.77708 1.34995,-2.22206 1.56146,-3.19514 0.18607,-0.85604 0.22272,-2.24959 0.0803,-3.05362 -0.73861,-4.17009 -4.73446,-6.99133 -8.8769,-6.26747 -3.7643,0.65778 -6.51035,4.07368 -6.33618,7.88176 0.14846,3.24578 2.07722,5.87783 5.14207,7.01702 0.98124,0.36472 2.66111,0.49932 3.77328,0.30233 z m 160.92342,29.74348 0.0223,-2.8575 17.4625,-0.0214 17.4625,-0.0214 v 2.87887 2.87887 h -17.4848 -17.48479 z m -11.61937,-5.82083 v -2.921 h -2.921 -2.921 v -2.87867 -2.87867 h 2.921 2.921 v 2.87867 2.87867 h 5.79967 5.79966 v 2.921 2.921 h -5.79966 -5.79967 z m 46.63128,0.0223 -0.0223,-2.90096 -11.66283,-0.0215 -11.66284,-0.0215 v -2.87797 -2.87798 l 8.74184,-0.0216 8.74183,-0.0216 0.0223,-2.89983 0.0223,-2.89984 h -2.92212 -2.92211 v -2.87866 -2.87867 h 5.79908 5.79908 l 0.0217,5.7785 0.0218,5.7785 h 8.72067 8.72066 l 0.0223,-2.89983 0.0223,-2.89984 h -2.92211 -2.92211 v -14.51922 -14.51922 l -2.89984,-0.0223 -2.89983,-0.0223 -0.0223,-2.8575 -0.0223,-2.8575 h -2.87754 -2.87754 v -2.921 -2.921 h 2.87867 2.87867 v 2.921 2.921 h 2.921 2.921 v 2.87756 2.87755 l 2.89983,0.0223 2.89983,0.0223 0.0214,14.49917 0.0214,14.49916 h 2.92076 2.92076 v 5.79927 5.79927 l -8.74184,0.0216 -8.74183,0.0216 -0.0423,2.87867 -0.0423,2.87866 -2.85639,0.0223 -2.85638,0.0223 z m -440.500614,-18.4373 v -12.954 h -8.551334 -8.551333 v 8.59366 8.59367 h -4.318 -4.318 v -12.954 -12.954 h 12.869333 12.869334 v -8.636 -8.636 h 25.611265 25.611266 l 0.02157,8.61483 0.02157,8.61484 h 4.318 4.318 l 0.02157,-8.61484 0.02157,-8.61483 H 15.31328 41.009212 v 25.95033 25.95034 H 15.312879 -10.383454 v -12.954 -12.954 h -4.360334 -4.360333 v 12.954 12.954 h -25.611667 -25.611666 z m 25.738666,-12.99634 v -17.22966 h -8.551333 -8.551333 v 17.22966 17.22967 h 8.551333 8.551333 z m 59.859334,-4e-4 v -17.23007 l -8.5301672,0.0216 -8.5301666,0.0216 -0.021371,17.2085 -0.021371,17.2085 h 8.5515378 8.551538 z m 296.587334,19.77007 v -2.87867 h -2.921 -2.921 v -5.79966 -5.79967 h -2.87867 -2.87866 v -8.72067 -8.72066 h 2.87866 2.87867 v -2.87867 -2.87867 h 2.921 2.921 v -2.921 -2.921 h 2.921 2.921 v -2.87866 -2.87867 h 11.64167 11.64166 v 2.87867 2.87866 H 329.34266 317.7021 l -0.0223,2.89984 -0.0223,2.89983 -2.89984,0.0223 -2.89983,0.0223 v 2.87755 2.87756 h -2.921 -2.921 v 8.72066 8.72067 h 5.84089 5.84089 l 0.0223,-2.89983 0.0223,-2.89984 h 2.87867 2.87867 l 0.0223,2.89984 0.0223,2.89983 h -2.92211 -2.92211 v 2.87867 2.87866 h -2.921 -2.921 v 2.921 2.921 h 2.921 2.921 v 2.87867 2.87867 h -2.921 -2.921 z m 29.12533,0 v -2.87867 h 2.921 2.921 v 2.87867 2.87867 h -2.921 -2.921 z M 81.310546,587.10354 v -5.461 h -5.418667 -5.418667 v -5.969 -5.969 h 5.418667 5.418667 v -5.41867 -5.41867 h 5.969 5.969 v 5.41805 5.41804 l 5.439833,0.0218 5.439831,0.0218 0.0217,5.94783 0.0217,5.94784 h -5.461573 -5.461571 v 5.461 5.461 h -5.969 -5.969 z m 156.887334,-4.52967 v -3.47133 h 16.51 16.51 v 3.47133 3.47133 h -16.51 -16.51 z m 85.344,-10.49867 v -2.87866 h 2.87867 2.87866 v 2.87866 2.87867 h -2.87866 -2.87867 z m -85.344,-3.38666 v -3.47134 h 16.51 16.51 v 3.47134 3.47133 h -16.51 -16.51 z m 102.82398,-11.19742 c -0.0226,-0.0588 -0.031,-1.36388 -0.0187,-2.90023 l 0.0224,-2.79335 8.74183,-0.0216 8.74183,-0.0216 v -2.87827 -2.87827 h 5.79967 5.79967 v 2.87867 2.87866 H 364.31 358.51145 l -0.0223,2.89984 -0.0223,2.89983 -8.70201,0.0216 c -6.94456,0.0172 -8.71028,-2e-5 -8.74301,-0.0853 z"
       id="path1" /></g></svg>
