<?xml version="1.0" encoding="UTF-8" standalone="no"?>
<!-- Created with Inkscape (http://www.inkscape.org/) -->

<svg
   width="161.44847mm"
   height="40.947144mm"
   viewBox="0 0 161.44846 40.947143"
   version="1.1"
   id="svg1"
   inkscape:version="1.3.2 (091e20e, 2023-11-25, custom)"
   sodipodi:docname="plebes1w.svg"
   xml:space="preserve"
   xmlns:inkscape="http://www.inkscape.org/namespaces/inkscape"
   xmlns:sodipodi="http://sodipodi.sourceforge.net/DTD/sodipodi-0.dtd"
   xmlns="http://www.w3.org/2000/svg"
   xmlns:svg="http://www.w3.org/2000/svg"><sodipodi:namedview
     id="namedview1"
     pagecolor="#ffffff"
     bordercolor="#000000"
     borderopacity="0.25"
     inkscape:showpageshadow="2"
     inkscape:pageopacity="0.0"
     inkscape:pagecheckerboard="0"
     inkscape:deskcolor="#d1d1d1"
     inkscape:document-units="mm"
     inkscape:zoom="0.52347032"
     inkscape:cx="254.07362"
     inkscape:cy="774.638"
     inkscape:window-width="1920"
     inkscape:window-height="1009"
     inkscape:window-x="-8"
     inkscape:window-y="-8"
     inkscape:window-maximized="1"
     inkscape:current-layer="layer1" /><defs
     id="defs1"><inkscape:path-effect
       effect="bspline"
       id="path-effect10"
       is_visible="true"
       lpeversion="1.3"
       weight="33.333333"
       steps="2"
       helper_size="0"
       apply_no_weight="true"
       apply_with_weight="true"
       only_selected="false"
       uniform="false" /><inkscape:path-effect
       effect="bspline"
       id="path-effect9"
       is_visible="true"
       lpeversion="1.3"
       weight="33.333333"
       steps="2"
       helper_size="0"
       apply_no_weight="true"
       apply_with_weight="true"
       only_selected="false"
       uniform="false" /><inkscape:path-effect
       effect="bspline"
       id="path-effect8"
       is_visible="true"
       lpeversion="1.3"
       weight="33.333333"
       steps="2"
       helper_size="0"
       apply_no_weight="true"
       apply_with_weight="true"
       only_selected="false"
       uniform="false" /><inkscape:path-effect
       effect="bspline"
       id="path-effect7"
       is_visible="true"
       lpeversion="1.3"
       weight="33.333333"
       steps="2"
       helper_size="0"
       apply_no_weight="true"
       apply_with_weight="true"
       only_selected="false"
       uniform="false" /><inkscape:path-effect
       effect="bspline"
       id="path-effect6"
       is_visible="true"
       lpeversion="1.3"
       weight="33.333333"
       steps="2"
       helper_size="0"
       apply_no_weight="true"
       apply_with_weight="true"
       only_selected="false"
       uniform="false" /><inkscape:path-effect
       effect="bspline"
       id="path-effect3"
       is_visible="true"
       lpeversion="1.3"
       weight="33.333333"
       steps="2"
       helper_size="0"
       apply_no_weight="true"
       apply_with_weight="true"
       only_selected="false"
       uniform="false" /><inkscape:path-effect
       effect="bspline"
       id="path-effect8-8"
       is_visible="true"
       lpeversion="1.3"
       weight="33.333333"
       steps="2"
       helper_size="0"
       apply_no_weight="true"
       apply_with_weight="true"
       only_selected="false"
       uniform="false" /><inkscape:path-effect
       effect="bspline"
       id="path-effect6-2"
       is_visible="true"
       lpeversion="1.3"
       weight="33.333333"
       steps="2"
       helper_size="0"
       apply_no_weight="true"
       apply_with_weight="true"
       only_selected="false"
       uniform="false" /><inkscape:path-effect
       effect="bspline"
       id="path-effect7-6"
       is_visible="true"
       lpeversion="1.3"
       weight="33.333333"
       steps="2"
       helper_size="0"
       apply_no_weight="true"
       apply_with_weight="true"
       only_selected="false"
       uniform="false" /><inkscape:path-effect
       effect="bspline"
       id="path-effect8-7"
       is_visible="true"
       lpeversion="1.3"
       weight="33.333333"
       steps="2"
       helper_size="0"
       apply_no_weight="true"
       apply_with_weight="true"
       only_selected="false"
       uniform="false" /><inkscape:path-effect
       effect="bspline"
       id="path-effect8-8-1"
       is_visible="true"
       lpeversion="1.3"
       weight="33.333333"
       steps="2"
       helper_size="0"
       apply_no_weight="true"
       apply_with_weight="true"
       only_selected="false"
       uniform="false" /></defs><g
     inkscape:label="Capa 1"
     inkscape:groupmode="layer"
     id="layer1"
     transform="translate(794.75043,54.471042)"><path
       style="fill:#ffffff;stroke-width:0.0875287;stroke:none"
       d="m -782.39919,-19.660228 v -1.543905 -1.543907 h -1.54392 -1.54387 v -1.543906 -1.543906 h -1.54391 -1.5439 v -1.543905 -1.543904 h -1.54391 -1.54391 v -3.087814 -3.087813 h -1.54392 -1.5439 v -4.631716 -4.631722 h 1.5439 1.54392 v -1.54391 -1.5439 h 1.54391 1.54391 v -1.5439 -1.54392 h 1.5439 1.54391 v -1.5439 -1.54391 h 6.1756 6.17563 v 1.54391 1.5439 h 4.63173 4.63172 v -1.5439 -1.54391 h 3.08782 3.08779 v 1.54391 1.5439 h 1.5439 1.54391 v 1.54392 1.5439 h 1.54392 1.5439 v 1.5439 1.54391 h 1.54391 1.5439 v 7.719533 7.719532 h 1.54391 1.54391 v 3.087809 3.087812 h -4.63172 -4.63173 v 1.543907 1.543905 h -1.54391 -1.5439 v 1.543907 1.543906 h -1.54389 -1.5439 -3.08782 -6.17562 -6.17564 v -1.543906 -1.543907 h -3.08782 z m 24.7025,-1.543905 v -1.543907 h -6.17561 -6.17562 v -1.543906 -1.543906 h 4.63171 4.63173 v -1.543905 -1.543904 h -1.54391 -1.54391 v -1.543908 -1.543906 h 3.08782 3.08779 v 3.087814 3.087809 h 4.63173 4.63171 v -1.543905 -1.543904 h -1.5439 -1.54391 v -7.719532 -7.719533 h -1.5439 -1.54392 v -1.54391 -1.5439 h -1.54391 -1.5439 v -1.5439 -1.54392 h -3.08779 -3.08782 v 1.54392 1.5439 h -4.63172 -4.63173 v -1.5439 -1.54392 h -6.17563 -6.1756 v 1.54392 1.5439 h -1.54391 -1.5439 v 1.5439 1.54391 h -1.54391 -1.54391 v 4.631722 4.631716 h 3.08782 3.08781 v 1.543907 1.543906 h -1.54391 -1.5439 v 1.543906 1.543908 h 1.5439 1.54391 v 1.543904 1.543905 h 1.54387 1.54392 v 1.543906 1.543906 h 3.08781 3.08782 v 1.543907 1.543905 h 9.26345 9.26342 z m -15.43906,-6.175624 v -1.543904 h 1.54392 1.54391 v 1.543904 1.543905 h -1.54391 -1.54392 z m -12.35123,-9.263436 v -1.543906 h 1.54387 1.54392 v -1.543905 -1.543908 h 1.5439 1.54391 v 1.543908 1.543905 h -1.54391 -1.5439 v 1.543906 1.543905 h -1.54392 -1.54387 z"
       id="path4"
       sodipodi:nodetypes="cccccccccccccccccccccccccccccccccccccccccccccccccccccccccccccccccccccccccccccccccccccccccccccccccccccccccccccccccccccccccccccccccccccccccccccccccccccccccccccccccccccccccccccccccccc" /><path
       style="font-size:60.0318px;line-height:10;font-family:'Nanum Pen';-inkscape-font-specification:'Nanum Pen';letter-spacing:-2.64583px;word-spacing:0px;fill-rule:evenodd;stroke-width:0.590864;stroke-linecap:round;stroke-linejoin:round;paint-order:stroke fill markers;fill:#ffffff;stroke:none"
       d="m -724.47807,-15.270277 q -0.06,0.660349 -0.60031,1.200636 -0.54029,0.600318 -1.20064,0.540286 -1.02054,-0.06003 -1.56083,-0.780414 -0.54028,-0.720381 -0.54028,-1.200636 0,-2.281208 -0.12007,-4.742512 -0.12006,-2.521335 -0.30016,-5.162735 -0.78041,0.120064 -1.44076,-0.120063 -0.60032,-0.300159 -0.84044,-0.900477 -0.42023,-1.020541 0.12006,-1.800954 0.54029,-0.780414 1.74092,-1.500795 -0.30016,-2.221177 -0.60032,-4.382321 -0.24012,-2.161145 -0.54028,-4.202226 -0.06,-0.360191 0.06,-0.66035 0.12006,-0.300159 0.30016,-0.540286 0.18009,-0.300159 0.66035,-0.540287 0.78041,-0.300159 1.74092,0.480255 1.02054,0.780413 1.38073,1.981049 0.1801,1.140604 0.36019,2.641399 0.24013,1.440764 0.42023,3.181686 1.26066,-0.780414 2.34124,-1.680891 1.1406,-0.900477 1.92101,-1.921017 0.84045,-1.020541 1.26067,-2.101113 0.42022,-1.140604 0.24013,-2.34124 -0.12007,-1.020541 -0.90048,-1.800954 -0.78041,-0.840446 -2.4613,-0.900477 -1.5008,-0.06003 -3.00159,0.240127 -1.44077,0.300159 -2.88153,0.780413 -1.38073,0.480255 -2.76146,1.140604 -1.3207,0.66035 -2.58137,1.3207 -0.84044,0.480254 -1.68089,0.420223 -0.78041,-0.120064 -1.02054,-0.600318 -0.54029,-1.200636 0.06,-2.161145 0.66035,-0.960509 1.98105,-1.800954 1.14061,-0.66035 2.70143,-1.3207 1.62086,-0.720381 3.36178,-1.200636 1.80096,-0.540286 3.60191,-0.720381 1.86099,-0.240128 3.54188,0.06003 1.68089,0.240128 3.00159,1.140605 1.38073,0.840445 2.22117,2.521335 1.02054,2.761463 0.54029,5.102703 -0.42022,2.281209 -1.80095,4.202226 -1.3207,1.860986 -3.30175,3.421813 -1.92102,1.500795 -3.90207,2.701431 0.30016,3.241717 0.42022,6.423402 0.12007,3.181686 0.06,5.582958 z m 15.12359,-34.638349 q 0.30015,6.543466 1.02054,13.567187 0.72038,6.963689 1.56082,13.327059 0.1801,2.6414 -1.44076,2.701431 -0.36019,0 -0.72038,-0.240127 -0.36019,-0.300159 -0.66035,-0.720381 -0.30016,-0.420223 -0.60032,-0.900477 -0.24013,-0.480255 -0.30016,-0.840446 -0.48025,-3.061621 -0.90048,-6.483434 -0.42022,-3.421812 -0.78041,-6.843625 -0.30016,-3.481844 -0.54029,-6.783593 -0.24012,-3.301749 -0.30015,-6.063212 0.12006,-1.440763 0.42022,-2.401272 0.30016,-1.020541 1.26067,-0.960509 1.02054,0.06003 1.44076,0.840445 0.48025,0.720382 0.54029,1.800954 z m 19.38581,13.98741 q -2.34124,1.380731 -5.04267,2.161144 -2.70143,0.720382 -5.82308,0.720382 0.12006,2.101113 1.20064,3.361781 1.08057,1.200636 2.70143,1.440763 0.9605,0.120063 1.92101,-0.06003 1.02054,-0.180095 1.86099,-0.540286 0.90048,-0.420223 1.62086,-0.900477 0.72038,-0.480254 1.26067,-0.960509 0.54028,-0.480254 1.1406,-0.600318 0.60032,-0.180095 0.90048,-0.06003 0.84044,0.300159 0.60031,1.800954 -0.9605,1.921018 -2.76146,3.301749 -1.80095,1.3207 -4.02213,1.680891 -1.92102,0.36019 -3.9621,-0.180096 -2.04108,-0.540286 -3.66194,-2.101113 -1.38073,-1.380731 -2.10111,-3.241717 -0.72038,-1.860986 -0.90048,-3.842035 -0.18009,-1.860986 0.30016,-3.541876 0.54029,-1.680891 1.62086,-2.941558 1.08057,-1.3207 2.70143,-2.161145 1.62086,-0.840445 3.782,-0.960509 2.58137,-0.180095 4.68249,0.960509 2.10111,1.140604 2.94155,3.181685 0.48026,1.140604 0.24013,1.98105 -0.18009,0.840445 -1.20064,1.500795 z m -6.90365,-4.082163 q -0.60032,0.120064 -1.3207,0.420223 -0.66035,0.300159 -1.26067,0.780413 -0.54029,0.420223 -1.02054,1.020541 -0.42022,0.540286 -0.48025,1.260668 1.02054,0 2.22117,-0.180096 1.26067,-0.180095 2.40127,-0.420222 1.20064,-0.300159 2.16115,-0.66035 1.02054,-0.360191 1.68089,-0.780414 -0.48026,-1.140604 -1.80095,-1.380731 -1.26067,-0.300159 -2.58137,-0.06003 z m 14.40319,-12.306519 q 0.06,0.960509 0.06,2.341241 0.06,1.380731 0.12006,3.001589 0.06,1.620859 0.1801,3.301749 0.12006,1.620859 0.36019,3.121654 0.90048,-1.500795 2.04108,-2.281208 1.20064,-0.780414 2.40127,-0.960509 1.86099,-0.240127 3.24172,0.420222 1.38073,0.66035 2.28121,1.860986 0.90047,1.140604 1.3207,2.581368 0.42022,1.380731 0.42022,2.701431 0,2.821494 -1.5008,5.222766 -1.44076,2.401272 -3.42181,4.262258 -1.92102,1.860986 -3.84203,3.121653 -1.86099,1.260668 -2.70143,1.800954 -1.20064,0.480255 -2.34124,0.240128 -1.14061,-0.240128 -1.5008,-0.720382 -0.30016,-0.720382 -0.18009,-1.200636 0.12006,-0.540286 0.48025,-0.960509 0.36019,-0.420222 0.84044,-0.720381 0.54029,-0.360191 0.90048,-0.66035 -1.44076,-6.603498 -2.22117,-13.32706 -0.78042,-6.783593 -0.66035,-13.747282 0,-1.200636 0.48025,-1.380731 0.54029,-0.180095 0.90048,-0.180095 0.84044,0.120063 1.50079,0.660349 0.66035,0.540287 0.84045,1.500795 z m 8.76464,15.908427 q 0,-2.041081 -1.02054,-2.821494 -1.02054,-0.840446 -2.10111,-0.720382 -0.90048,0.120064 -1.62086,0.66035 -0.72038,0.540286 -1.26067,1.320699 -0.54029,0.780414 -0.84045,1.740923 -0.24012,0.960508 -0.18009,1.860985 0.12006,1.500795 0.30016,3.241718 0.24013,1.740922 0.54028,3.121653 0.96051,-0.66035 2.04109,-1.500795 1.08057,-0.900477 1.98104,-1.981049 0.96051,-1.080573 1.56083,-2.281209 0.60032,-1.260667 0.60032,-2.641399 z m 19.74603,0.480255 q -2.34124,1.380731 -5.04268,2.161144 -2.70143,0.720382 -5.82308,0.720382 0.12006,2.101113 1.20064,3.361781 1.08057,1.200636 2.70143,1.440763 0.96051,0.120063 1.92101,-0.06003 1.02054,-0.180095 1.86099,-0.540286 0.90048,-0.420223 1.62086,-0.900477 0.72038,-0.480254 1.26067,-0.960509 0.54028,-0.480254 1.1406,-0.600318 0.60032,-0.180095 0.90048,-0.06003 0.84044,0.300159 0.60032,1.800954 -0.96051,1.921018 -2.76147,3.301749 -1.80095,1.3207 -4.02213,1.680891 -1.92102,0.36019 -3.9621,-0.180096 -2.04108,-0.540286 -3.66194,-2.101113 -1.38073,-1.380731 -2.10111,-3.241717 -0.72038,-1.860986 -0.90048,-3.842035 -0.18009,-1.860986 0.30016,-3.541876 0.54029,-1.680891 1.62086,-2.941558 1.08057,-1.3207 2.70143,-2.161145 1.62086,-0.840445 3.78201,-0.960509 2.58136,-0.180095 4.68248,0.960509 2.10111,1.140604 2.94155,3.181685 0.48026,1.140604 0.24013,1.98105 -0.18009,0.840445 -1.20063,1.500795 z m -6.90366,-4.082163 q -0.60032,0.120064 -1.3207,0.420223 -0.66035,0.300159 -1.26067,0.780413 -0.54029,0.420223 -1.02054,1.020541 -0.42022,0.540286 -0.48025,1.260668 1.02054,0 2.22117,-0.180096 1.26067,-0.180095 2.40127,-0.420222 1.20064,-0.300159 2.16115,-0.66035 1.02054,-0.360191 1.68089,-0.780414 -0.48025,-1.140604 -1.80095,-1.380731 -1.26067,-0.300159 -2.58137,-0.06003 z m 22.02723,0.240127 q -0.12006,-0.660349 -0.24013,-1.260667 -0.12006,-0.600318 -0.60032,-0.780414 -1.02054,-0.300159 -2.16114,-0.06003 -1.1406,0.240128 -2.10111,0.780414 -0.96051,0.480254 -1.62086,1.140604 -0.66035,0.600318 -0.72038,1.080572 -0.1801,0.900477 0.48025,1.740923 0.66035,0.840445 1.92102,1.68089 2.10111,1.260668 4.38232,2.581367 2.28121,1.3207 3.84204,2.701431 1.56082,1.380732 2.10111,3.061622 0.60032,1.620859 -0.24013,3.721972 -0.66035,1.620858 -2.4613,2.641399 -1.80096,1.02054 -3.9621,1.620858 -2.16115,0.540287 -4.32229,0.780414 -2.16115,0.180095 -3.66194,0.180095 -0.36019,0 -0.90048,-0.240127 -0.48025,-0.300159 -0.96051,-0.66035 -0.42022,-0.360191 -0.78041,-0.720381 -0.30016,-0.420223 -0.30016,-0.720382 0,-1.080572 0.96051,-1.500795 0.96051,-0.420223 1.98105,-0.420223 1.44076,0 3.06162,-0.120063 1.68089,-0.180096 3.18169,-0.480255 1.50079,-0.36019 2.70143,-0.900477 1.20063,-0.540286 1.68089,-1.380731 0.42022,-0.720382 -0.54029,-1.68089 -0.90048,-1.020541 -2.4613,-2.101113 -1.5008,-1.080573 -3.30175,-2.101113 -1.74092,-1.020541 -3.00159,-1.860986 -1.26067,-0.840445 -2.16115,-1.981049 -0.90047,-1.200636 -1.1406,-2.941559 -0.06,-1.560826 0.66035,-3.00159 0.72038,-1.440763 1.86099,-2.521335 1.20063,-1.140604 2.70143,-1.800954 1.50079,-0.66035 3.00159,-0.66035 2.58136,0.120064 4.26225,1.440763 1.68089,1.260668 1.98105,3.782004 0,0.840445 -0.30016,1.380731 -0.24012,0.540286 -0.90047,0.66035 -0.84045,0.120063 -1.38073,-0.180096 -0.48026,-0.36019 -0.54029,-0.900477 z"
       id="text3-1"
       aria-label="plebes" /></g></svg>
